{"title":"Dune.(1988).OFFICIAL.SMITHEE.UK.SPECIAL.TV.EDITION.DVDRip.[480x3","uid":7056311,"size":512817021,"categoryP":"video","categoryS":"movies","magnet":"?xt=urn:btih:a1cf0e974d70acb2d6eb81de8620462ba883ae79&amp;dn=Dune.%281988%29.OFFICIAL.SMITHEE.UK.SPECIAL.TV.EDITION.DVDRip.%5B480x3&amp;tr=udp%3A%2F%2Ftracker.openbittorrent.com%3A80&amp;tr=udp%3A%2F%2Fopen.demonii.com%3A1337&amp;tr=udp%3A%2F%2Ftracker.coppersurfer.tk%3A6969&amp;tr=udp%3A%2F%2Fexodus.desync.com%3A6969","seeders":0,"leechers":1,"uploader":"k3nd00d","files":-1,"time":1330133262,"description":"\nxxxxxxxxxxxxxxxxxxxxxxxxxxxxxxxxxxxxxxxxxxxxxxxxxxxxxxxxxxxxxxxxxxxxxxxxxxxxxxxx\n\nDune\n1988 Official Smithee UK Special TV Edition (also the SciFi Channel version)\n\n4:3 Aspect Ratio for Full Screen Standard Definition TV\n\nDirector: Alan Smithee (David Lynch)\n\nxxxxxxxxxxxxxxxxxxxxxxxxxxxxxxxxxxxxxxxxxxxxxxxxxxxxxxxxxxxxxxxxxxxxxxxxxxxxxxxx\n\nNote: There is also a variant of this version that is in two parts with a long\n&quot;story so-far&quot; intro to the second part. That makes that variant 189 minutes,\nbut only that second part intro and closing credits at the end of the first\npart are added and make that variant several minutes longer than this vesion.\n\nxxxxxxxxxxxxxxxxxxxxxxxxxxxxxxxxxxxxxxxxxxxxxxxxxxxxxxxxxxxxxxxxxxxxxxxxxxxxxxxx\n\nOFFICIAL VERSIONS INFO:\n &lt;a href=&quot;\nhttp://www.imdb.com/title/tt0087182/&quot; rel=&quot;nofollow&quot; target=&quot;_NEW&quot;&gt;\nhttp://www.imdb.com/title/tt0087182/&lt;/a&gt;\n &lt;a href=&quot;\nhttp://www.imdb.com/title/tt0087182/alternateversions&quot; rel=&quot;nofollow&quot; target=&quot;_NEW&quot;&gt;\nhttp://www.imdb.com/title/tt0087182/alternateversions&lt;/a&gt;\n &lt;a href=&quot;\nhttp://en.wikipedia.org/wiki/Dune_(film)&quot; rel=&quot;nofollow&quot; target=&quot;_NEW&quot;&gt;\nhttp://en.wikipedia.org/wiki/Dune_(film)&lt;/a&gt;\n\nxxxxxxxxxxxxxxxxxxxxxxxxxxxxxxxxxxxxxxxxxxxxxxxxxxxxxxxxxxxxxxxxxxxxxxxxxxxxxxxx\n\nA WORLD BEYOND YOUR EXPERIENCE, BEYOND YOUR IMAGINATION.\n\nThe spice must flow.\n\nxxxxxxxxxxxxxxxxxxxxxxxxxxxxxxxxxxxxxxxxxxxxxxxxxxxxxxxxxxxxxxxxxxxxxxxxxxxxxxxx\n\nKyle MacLachlan\t ...\tPaul Atreides\nVirginia Madsen\t ...\tPrincess Irulan\nPatrick Stewart\t ...\tGurney Halleck\nSting\t \t ...\tFeyd Rautha\nDean Stockwell\t ...\tDoctor Wellington Yueh\nSean Young\t ...\tChani\nFrancesca Annis\t ...\tLady Jessica\nLeonardo Cimino\t ...\tThe Baron's Doctor\nBrad Dourif\t ...\tPiter De Vries\nJose Ferrer\t ...\tPadishah Emperor Shaddam IV\nLinda Hunt\t ...\tShadout Mapes\nFreddie Jones\t ...\tThufir Hawat\nRichard Jordan\t ...\tDuncan Idaho\nSilvana Mangano\t ...\tReverend Mother Ramallo\nEverett McGill\t ...\tStilgar\nKenneth McMillan ...\tBaron Vladimir Harkonnen\nJack Nance\t ...\tNefud\nSian Phillips\t ...\tReverend Mother Gaius Helen Mohiam\nJurgen Prochnow\t ...\tDuke Leto Atreides\nPaul L. Smith\t ...\tThe Beast Rabban\nMax von Sydow\t ...\tDoctor Kynes\nAlicia Witt\t ...\tAlia\n\nxxxxxxxxxxxxxxxxxxxxxxxxxxxxxxxxxxxxxxxxxxxxxxxxxxxxxxxxxxxxxxxxxxxxxxxxxxxxxxxx\n\nOther versions of Dune in 272p and 480x352: &lt;a href=&quot;\nhttp://thepiratebay.com/tag/Dune+272p&quot; rel=&quot;nofollow&quot; target=&quot;_NEW&quot;&gt;\nhttp://thepiratebay.com/tag/Dune+272p&lt;/a&gt; &lt;a href=&quot;\nhttp://thepiratebay.com/tag/Dune+480x352&quot; rel=&quot;nofollow&quot; target=&quot;_NEW&quot;&gt;\nhttp://thepiratebay.com/tag/Dune+480x352&lt;/a&gt;\n\nOther releases: &lt;a href=&quot;\nhttp://thepiratebay.com/user/k3nd00d&quot; rel=&quot;nofollow&quot; target=&quot;_NEW&quot;&gt;\nhttp://thepiratebay.com/user/k3nd00d&lt;/a&gt;\n\nxxxxxxxxxxxxxxxxxxxxxxxxxxxxxxxxxxxxxxxxxxxxxxxxxxxxxxxxxxxxxxxxxxxxxxxxxxxxxxxx\n\nGeneral\nFormat                           : MPEG-4\nFormat profile                   : Base Media / Version 2\nCodec ID                         : mp42\nFile size                        : 489 MiB\nDuration                         : 2h 56mn\nOverall bit rate                 : 387 Kbps\n\nVideo\nID                               : 1\nFormat                           : AVC\nFormat/Info                      : Advanced Video Codec\nFormat profile                   : &lt;a class=&quot;__cf_email__&quot; href=&quot;/cdn-cgi/l/email-protection&quot; data-cfemail=&quot;480a293b2d2421262d08047a6679&quot;&gt;[email&amp;#160;protected]&lt;/a&gt;&lt;script cf-hash='f9e31' type=&quot;text/javascript&quot;&gt;\n/* &lt;![CDATA[ */!function(){try{var t=&quot;currentScript&quot;in document?document.currentScript:function(){for(var t=document.getElementsByTagName(&quot;script&quot;),e=t.length;e--;)if(t[e].getAttribute(&quot;cf-hash&quot;))return t[e]}();if(t&amp;&amp;t.previousSibling){var e,r,n,i,c=t.previousSibling,a=c.getAttribute(&quot;data-cfemail&quot;);if(a){for(e=&quot;&quot;,r=parseInt(a.substr(0,2),16),n=2;a.length-n;n+=2)i=parseInt(a.substr(n,2),16)^r,e+=String.fromCharCode(i);e=document.createTextNode(e),c.parentNode.replaceChild(e,c)}}}catch(u){}}();/* ]]&gt; */&lt;/script&gt;\nFormat settings, CABAC           : No\nFormat settings, ReFrames        : 2 frames\nCodec ID                         : avc1\nCodec ID/Info                    : Advanced Video Coding\nDuration                         : 2h 56mn\nBit rate mode                    : Variable\nBit rate                         : 320 Kbps\nWidth                            : 480 pixels\nHeight                           : 352 pixels\nDisplay aspect ratio             : 4:3\nFrame rate mode                  : Variable\nFrame rate                       : 25.000 fps\nMinimum frame rate               : 12.500 fps\nMaximum frame rate               : 25.000 fps\nColor space                      : YUV\nChroma subsampling               : 4:2:0\nBit depth                        : 8 bits\nScan type                        : Progressive\nBits/(Pixel*Frame)               : 0.076\nStream size                      : 405 MiB (83%)\nWriting library                  : x264 core 79\n\nAudio\nID                               : 2\nFormat                           : AAC\nFormat/Info                      : Advanced Audio Codec\nFormat profile                   : LC\nCodec ID                         : 40\nDuration                         : 2h 56mn\nBit rate mode                    : Variable\nBit rate                         : 64.0 Kbps\nMaximum bit rate                 : 81.7 Kbps\nChannel(s)                       : 2 channels\nChannel positions                : Front: L R\nSampling rate                    : 44.1 KHz\nCompression mode                 : Lossy\nStream size                      : 80.9 MiB (17%)\nLanguage                         : English\n\nxxxxxxxxxxxxxxxxxxxxxxxxxxxxxxxxxxxxxxxxxxxxxxxxxxxxxxxxxxxxxxxxxxxxxxxxxxxxxxxx\n","torrent":{"xt":"urn:btih:a1cf0e974d70acb2d6eb81de8620462ba883ae79","amp;dn":"Dune.%281988%29.OFFICIAL.SMITHEE.UK.SPECIAL.TV.EDITION.DVDRip.%5B480x3","amp;tr":["udp%3A%2F%2Ftracker.openbittorrent.com%3A80","udp%3A%2F%2Fopen.demonii.com%3A1337","udp%3A%2F%2Ftracker.coppersurfer.tk%3A6969","udp%3A%2F%2Fexodus.desync.com%3A6969"],"infoHash":"a1cf0e974d70acb2d6eb81de8620462ba883ae79","infoHashBuffer":{"type":"Buffer","data":[161,207,14,151,77,112,172,178,214,235,129,222,134,32,70,43,168,131,174,121]},"announce":[],"urlList":[]}}